<svg width="441" height="441" viewBox="65 71 305 368"  fill="none" xmlns="http://www.w3.org/2000/svg">
<path d="M88.8728 307.199V291.743C88.8728 289.694 89.687 287.728 91.1363 286.279C92.5856 284.829 94.5513 284.015 96.6009 284.015H100.465C102.515 284.015 104.48 284.829 105.93 286.279C107.379 287.728 108.193 289.694 108.193 291.743V307.199H112.057V291.743C112.057 288.669 110.836 285.72 108.662 283.546C106.488 281.372 103.539 280.151 100.465 280.151H96.6009C93.5265 280.151 90.578 281.372 88.404 283.546C86.2301 285.72 85.0088 288.669 85.0088 291.743V307.199H88.8728Z" fill="white"/>
<path d="M115.95 351.636H86.9699V301.403H119.814V347.772C119.814 348.797 119.407 349.779 118.682 350.504C117.958 351.229 116.975 351.636 115.95 351.636Z" fill="#BC4726"/>
<path d="M92.7851 351.636H81.193C80.1682 351.636 79.1854 351.229 78.4607 350.504C77.7361 349.779 77.329 348.797 77.329 347.772V303.335C77.329 302.823 77.5326 302.332 77.8949 301.969C78.2572 301.607 78.7486 301.403 79.261 301.403H94.7172C95.2296 301.403 95.7209 301.607 96.0833 301.969C96.4456 302.332 96.6492 302.823 96.6492 303.335V347.772C96.6492 348.797 96.2421 349.779 95.5174 350.504C94.7928 351.229 93.8099 351.636 92.7851 351.636Z" fill="#DE5833"/>
<path d="M88.5348 340.314C88.356 340.065 88.1203 339.862 87.8473 339.722C87.5743 339.581 87.2719 339.508 86.9651 339.508C86.6582 339.508 86.3558 339.581 86.0828 339.722C85.8098 339.862 85.5742 340.065 85.3953 340.314L78.2468 350.293C78.6063 350.71 79.0508 351.046 79.5506 351.278C80.0504 351.509 80.594 351.631 81.1449 351.636H92.737C93.2885 351.635 93.8332 351.515 94.3336 351.283C94.834 351.051 95.2781 350.713 95.635 350.293L88.5348 340.314Z" fill="#BC4726"/>
<path d="M83.0767 269.525C83.0746 273.914 84.5669 278.173 87.3078 281.6C88.3963 282.966 89.7791 284.068 91.3532 284.824C92.9272 285.58 94.6517 285.97 96.3979 285.967H100.465C102.002 285.967 103.476 285.356 104.563 284.269C105.65 283.182 106.261 281.708 106.261 280.17V276.364C106.261 275.206 105.914 274.075 105.265 273.116C104.616 272.157 103.694 271.414 102.619 270.984L100.243 270.018C99.1675 269.587 98.246 268.845 97.5969 267.886C96.9477 266.927 96.6008 265.795 96.6008 264.637V256.445H83.0767V269.525Z" fill="#92540C"/>
<path opacity="0.25" d="M102.6 270.964L100.223 269.998C99.1482 269.568 98.2267 268.825 97.5776 267.866C96.9285 266.907 96.5815 265.776 96.5814 264.617V260.29H83.0767V266.086H87.3947C87.8449 266.086 88.2908 266.175 88.7064 266.348C89.122 266.521 89.4992 266.775 89.8163 267.095C90.1333 267.415 90.3838 267.794 90.5535 268.211C90.7232 268.628 90.8086 269.075 90.8047 269.525C90.8027 273.914 92.2949 278.172 95.0359 281.6C96.7744 283.772 99.2362 285.246 101.972 285.754C103.204 285.422 104.292 284.693 105.067 283.68C105.843 282.667 106.262 281.427 106.261 280.151V276.345C106.259 275.185 105.91 274.051 105.257 273.092C104.604 272.133 103.678 271.392 102.6 270.964Z" fill="#330B01"/>
<path d="M156.32 393.937L154.001 388.035L133.435 335.735C132.735 333.96 132.58 332.016 132.99 330.152L151.934 242.651L127.784 241.685C121.726 241.409 115.807 243.548 111.324 247.632C106.842 251.716 104.163 257.411 103.875 263.468L101.431 323.022C101.143 329.994 102.756 336.913 106.097 343.038L137.009 399.617L139.511 404.206C139.711 404.565 139.983 404.878 140.311 405.126C140.638 405.374 141.014 405.552 141.413 405.647C141.813 405.742 142.228 405.754 142.632 405.68C143.036 405.607 143.421 405.45 143.761 405.22L155.286 397.386C155.822 397.012 156.216 396.468 156.403 395.841C156.591 395.215 156.561 394.544 156.32 393.937Z" fill="#070019"/>
<path d="M156.32 393.937L154.001 388.035L133.435 335.735C132.735 333.96 132.58 332.016 132.99 330.152L151.934 242.651L127.784 241.685C121.726 241.409 115.807 243.548 111.324 247.632C106.842 251.716 104.163 257.411 103.875 263.468L101.431 323.022C101.143 329.994 102.756 336.913 106.097 343.038L137.009 399.617L139.511 404.206C139.711 404.565 139.983 404.878 140.311 405.126C140.638 405.374 141.014 405.552 141.413 405.647C141.813 405.742 142.228 405.754 142.632 405.68C143.036 405.607 143.421 405.45 143.761 405.22L155.286 397.386C155.822 397.012 156.216 396.468 156.403 395.841C156.591 395.215 156.561 394.544 156.32 393.937Z" fill="#110336"/>
<path opacity="0.5" d="M103.015 284.74L101.431 323.023C101.143 329.994 102.756 336.913 106.097 343.038L110.434 350.979H110.492C111.227 351.015 111.958 350.856 112.611 350.517C113.264 350.178 113.816 349.671 114.209 349.049C114.602 348.427 114.822 347.712 114.848 346.977C114.874 346.241 114.704 345.512 114.356 344.864L113.525 343.338C110.175 337.216 108.561 330.295 108.86 323.322L110.125 293.318C110.171 291.943 109.834 290.583 109.152 289.389C108.469 288.195 107.469 287.214 106.261 286.556L103.015 284.74Z" fill="#14307E"/>
<path d="M134.604 418.348C132.062 421.738 130.704 425.868 130.74 430.105V432.723L133.01 432.819L163.594 409.5L157.798 397.956C157.705 397.732 157.562 397.533 157.38 397.374C157.197 397.215 156.98 397.101 156.745 397.041C156.511 396.981 156.265 396.977 156.029 397.028C155.792 397.08 155.571 397.186 155.383 397.338L142.969 405.732L134.604 418.348Z" fill="#F9BE1A"/>
<path d="M163.555 409.5L132.971 432.781L135.685 432.887C137.966 432.975 140.204 432.253 142.003 430.849L162.772 415.016C163.46 414.443 163.943 413.662 164.15 412.792C164.358 411.921 164.277 411.007 163.922 410.186L163.555 409.5Z" fill="#E6E6E6"/>
<path d="M97.1129 428.917C96.9266 429.436 96.7781 429.969 96.6685 430.51C96.6187 430.791 96.6314 431.079 96.7059 431.354C96.7803 431.629 96.9147 431.884 97.0994 432.101C97.284 432.318 97.5143 432.491 97.7739 432.609C98.0334 432.726 98.3157 432.785 98.6006 432.781H135.309C135.779 432.785 136.235 432.617 136.591 432.31C136.946 432.002 137.177 431.575 137.241 431.109L137.54 428.917H97.1129Z" fill="white"/>
<path d="M122.915 413.46C121.405 413.46 119.916 413.814 118.568 414.494L103.45 422.154C101.994 422.799 100.682 423.729 99.5936 424.891C98.5049 426.053 97.6612 427.422 97.1128 428.916H137.531L139.192 416.754C139.249 416.342 139.216 415.922 139.096 415.523C138.977 415.125 138.772 414.757 138.497 414.444C138.222 414.131 137.883 413.882 137.503 413.712C137.123 413.542 136.71 413.456 136.294 413.46H122.915Z" fill="#FFCC33"/>
<path d="M168.086 269.332C168.079 264.977 167.215 260.667 165.543 256.646C163.87 252.626 161.422 248.974 158.338 245.9C155.254 242.825 151.594 240.389 147.568 238.729C143.542 237.07 139.229 236.219 134.874 236.227H108.309L132.343 286.324L120.23 409.229C120.178 409.767 120.24 410.309 120.411 410.821C120.582 411.333 120.859 411.804 121.223 412.202C121.587 412.601 122.031 412.919 122.525 413.135C123.019 413.352 123.554 413.463 124.094 413.46H136.053C136.931 413.462 137.784 413.165 138.471 412.617C139.157 412.069 139.637 411.303 139.83 410.447L163.98 305.654C166.72 293.741 168.098 281.556 168.086 269.332Z" fill="#070019"/>
<path d="M168.086 269.332C168.079 264.977 167.215 260.667 165.543 256.646C163.87 252.626 161.422 248.974 158.338 245.9C155.254 242.825 151.594 240.389 147.568 238.729C143.542 237.07 139.229 236.219 134.874 236.227H108.309L132.343 286.324L120.23 409.229C120.178 409.767 120.24 410.309 120.411 410.821C120.582 411.333 120.859 411.804 121.223 412.202C121.587 412.601 122.031 412.919 122.525 413.135C123.019 413.352 123.554 413.463 124.094 413.46H136.053C136.931 413.462 137.784 413.165 138.471 412.617C139.157 412.069 139.637 411.303 139.83 410.447L163.98 305.654C166.72 293.741 168.098 281.556 168.086 269.332Z" fill="#110336"/>
<path opacity="0.5" d="M130.411 402.583L141.771 286.913C141.876 285.935 141.679 284.949 141.208 284.086C140.737 283.223 140.013 282.524 139.134 282.083L136.284 280.653C135.919 280.47 135.515 280.377 135.106 280.385C134.697 280.392 134.296 280.499 133.938 280.695C133.579 280.892 133.274 281.173 133.048 281.514C132.823 281.855 132.684 282.246 132.643 282.653L120.567 405.732L120.229 409.21C120.178 409.747 120.24 410.289 120.411 410.801C120.582 411.313 120.859 411.784 121.223 412.183C121.587 412.581 122.03 412.899 122.525 413.116C123.019 413.333 123.554 413.443 124.093 413.441H136.053C136.931 413.443 137.784 413.145 138.47 412.597C139.157 412.049 139.636 411.284 139.83 410.427L140.883 405.732H133.309C132.906 405.734 132.508 405.651 132.139 405.49C131.77 405.329 131.438 405.093 131.166 404.797C130.893 404.5 130.685 404.15 130.555 403.769C130.425 403.388 130.376 402.984 130.411 402.583Z" fill="#14307E"/>
<path d="M173.911 226.055H152.658V241.511H173.911V226.055Z" fill="#5132A9"/>
<path d="M110 241.173L115.796 242.564C127.112 245.239 138.943 244.802 150.031 241.298L156.175 239.366V162.298L143.694 158.994H133.155C127.867 158.982 122.623 159.965 117.699 161.892L112.54 163.94L110 241.173Z" fill="#FFCC33"/>
<path d="M147.113 161.419L139.714 158.956H129.928C125.676 158.961 121.467 159.808 117.544 161.448V164.906C117.643 168.762 119.243 172.427 122.005 175.119C124.767 177.811 128.472 179.318 132.329 179.318C136.186 179.318 139.89 177.811 142.652 175.119C145.414 172.427 147.015 168.762 147.113 164.906V161.419Z" fill="#E2A412"/>
<path d="M115.805 242.564L110.173 241.211L110 246.119L115.796 247.51C127.112 250.19 138.943 249.753 150.031 246.244L156.175 244.312V239.366L150.031 241.298C138.946 244.8 127.119 245.238 115.805 242.564Z" fill="#E2A412"/>
<path d="M189.183 219.582C189.046 218.77 188.826 217.973 188.527 217.206L176.548 184.362C173.764 176.75 168.705 170.18 162.058 165.544C155.414 160.889 147.498 158.393 139.386 158.395H132.962V162.259H141.801C142.932 162.259 144.028 162.657 144.897 163.383C145.766 164.108 146.352 165.116 146.553 166.23C147.141 169.014 146.802 171.915 145.587 174.489L143.926 177.783C141.485 182.58 140.507 187.988 141.115 193.336L144.892 233.222L176.992 233.744C178.77 233.756 180.529 233.381 182.147 232.645C183.765 231.909 185.204 230.83 186.364 229.483C187.524 228.136 188.376 226.553 188.863 224.843C189.35 223.133 189.459 221.338 189.183 219.582Z" fill="#5132A9"/>
<path d="M167.052 233.783C165.184 233.781 163.321 233.6 161.488 233.242L166.154 214.462L152.784 213.941L141.037 204.406C141.037 212.377 141.742 220.333 143.143 228.18L149.587 264.308C149.702 264.958 149.982 265.568 150.4 266.079C150.818 266.59 151.36 266.986 151.974 267.228C152.588 267.47 153.254 267.551 153.908 267.463C154.562 267.374 155.183 267.12 155.711 266.723L166.154 258.899C168.553 257.099 170.501 254.766 171.842 252.083C173.183 249.4 173.882 246.442 173.882 243.443V233.783H167.052Z" fill="#3E228C"/>
<path d="M102.773 196.108C102.888 194.988 103.178 193.893 103.633 192.863L117.988 160.511C109.396 163.588 102.126 169.53 97.4025 177.339C95.2288 180.933 93.6286 184.844 92.6593 188.931C92.5917 189.221 92.2922 190.554 92.2246 190.931L82.1492 245.027C81.6662 247.616 81.3764 250.234 81.1059 252.842C80.9514 254.339 81.0383 255.846 81.0093 257.344V257.411C81.0133 257.695 81.0522 257.977 81.1252 258.252C81.2787 258.845 81.5852 259.388 82.014 259.826C82.6667 260.45 83.5358 260.796 84.4386 260.792H94.5334C95.5582 260.792 96.541 260.385 97.2657 259.661C97.9903 258.936 98.3974 257.953 98.3974 256.928V256.832C98.3974 256.445 98.3974 256.059 98.3974 255.672C98.3974 255.508 98.3974 255.334 98.3974 255.17C98.3974 254.716 98.4554 254.252 98.4941 253.798C98.4941 253.683 98.4941 253.576 98.4941 253.47C98.6109 252.112 98.8011 250.76 99.064 249.422L103.421 227.639C105.153 218.249 104.972 208.605 102.889 199.287C102.696 198.239 102.656 197.168 102.773 196.108Z" fill="#6B4EBA"/>
<path d="M105.372 265.333C106.164 265.385 106.953 265.202 107.641 264.806C108.328 264.411 108.883 263.821 109.236 263.111L116.114 249.239C119.778 241.947 121.088 233.698 119.862 225.63C119.775 225.06 119.669 224.499 119.553 223.929L116.114 206.947C113.841 195.729 114.325 184.127 117.525 173.137L118.027 171.417C118.565 169.379 119.751 167.571 121.406 166.266C123.062 164.961 125.097 164.229 127.204 164.182V158.386H127.088C123.467 158.773 119.912 159.627 116.51 160.926H116.414C104.406 165.534 97.7215 179.28 100.958 192.534L101.875 196.34C101.933 196.659 101.972 196.987 102.04 197.306C102.648 200.108 103.141 202.928 103.489 205.768C103.924 209.553 103.596 213.387 102.523 217.042L97.4027 235.029C95.6329 241.235 95.9727 247.854 98.3687 253.847V253.905L101.885 262.724C102.165 263.425 102.637 264.033 103.247 264.477C103.858 264.921 104.581 265.184 105.334 265.236L105.372 265.333Z" fill="#5132A9"/>
<path d="M147.355 174.18C146.811 174.324 146.305 174.582 145.869 174.937C145.432 175.292 145.076 175.735 144.824 176.238L143.964 177.957C143.17 179.563 142.523 181.238 142.032 182.961C141.093 186.42 140.802 190.022 141.173 193.587L142.139 204.107L146.379 202.986L147.577 203.952L146.476 192.244C145.863 186.865 146.84 181.424 149.287 176.595C149.431 176.306 149.489 175.981 149.454 175.66C149.419 175.339 149.291 175.034 149.088 174.784C148.884 174.533 148.612 174.346 148.305 174.246C147.997 174.146 147.668 174.136 147.355 174.219V174.18Z" fill="#6B4EBA"/>
<path d="M166.154 226.054C167.492 222.306 167.492 218.21 166.154 214.462C163.654 214.474 161.241 213.546 159.392 211.864L147.278 200.851C145.373 199.119 143.04 197.926 140.52 197.394C138.001 196.863 135.385 197.012 132.942 197.828L127.958 198.658C126.768 198.827 125.626 199.239 124.601 199.866C123.577 200.494 122.692 201.325 122.001 202.308C121.31 203.291 120.829 204.406 120.585 205.582C120.342 206.759 120.343 207.973 120.587 209.149C121.033 211.221 122.182 213.074 123.839 214.395C125.496 215.715 127.558 216.422 129.677 216.394H137.289C139.676 216.395 141.978 217.279 143.752 218.877L157.006 230.807C158.31 231.891 159.808 232.717 161.42 233.242C163.584 231.287 165.213 228.814 166.154 226.054Z" fill="#92540C"/>
<g opacity="0.25">
<path opacity="0.25" d="M166.154 226.054C167.492 222.306 167.492 218.21 166.154 214.462C163.654 214.474 161.241 213.546 159.392 211.864L147.278 200.851C145.373 199.119 143.04 197.926 140.52 197.394C138.001 196.863 135.385 197.012 132.942 197.828L127.958 198.658C126.768 198.827 125.626 199.239 124.601 199.866C123.577 200.494 122.692 201.325 122.001 202.308C121.31 203.291 120.829 204.406 120.585 205.582C120.342 206.759 120.343 207.973 120.587 209.149C121.033 211.221 122.182 213.074 123.839 214.395C125.496 215.715 127.558 216.422 129.677 216.394H137.289C139.676 216.395 141.978 217.279 143.752 218.877L157.006 230.807C158.31 231.891 159.808 232.717 161.42 233.242C163.584 231.287 165.213 228.814 166.154 226.054Z" fill="#330B01"/>
</g>
<path d="M142.969 227.185C143.018 227.513 143.075 227.851 143.133 228.151L149.577 264.28C149.692 264.93 149.972 265.539 150.39 266.05C150.808 266.561 151.35 266.957 151.964 267.199C152.578 267.441 153.244 267.522 153.898 267.434C154.553 267.345 155.173 267.091 155.701 266.695L157.044 265.68C156.49 265.417 156.006 265.026 155.633 264.539C155.26 264.051 155.009 263.483 154.899 262.879C154.899 262.879 152.571 249.828 150.697 239.299V239.221C149.896 235.069 147.743 231.298 144.573 228.499L143.8 227.803C143.534 227.583 143.256 227.377 142.969 227.185Z" fill="#5132A9"/>
<path d="M135.463 193.974C135.649 194.629 135.568 195.332 135.239 195.929C134.91 196.525 134.359 196.968 133.705 197.161L127.32 198.746C126.52 198.941 125.75 199.243 125.031 199.644C123.52 200.472 122.292 201.734 121.505 203.267C121.291 203.635 121.178 204.053 121.178 204.479C121.178 204.905 121.291 205.323 121.505 205.691C121.81 206.173 122.287 206.521 122.84 206.665C123.392 206.808 123.978 206.736 124.48 206.464C125.332 206.011 126.252 205.701 127.204 205.546L133.841 204.271C141.057 202.88 144.467 204.271 148.427 207.865L161.613 219.853C163.132 221.233 165.011 222.154 167.033 222.509C167.368 219.795 167.067 217.04 166.154 214.463C163.654 214.474 161.24 213.547 159.391 211.864L148.823 202.204C145.943 199.566 143.393 196.588 141.231 193.336L139.733 191.085C139.439 190.64 139.011 190.3 138.511 190.112C138.012 189.925 137.466 189.9 136.951 190.042C136.308 190.221 135.761 190.645 135.429 191.223C135.096 191.802 135.005 192.488 135.174 193.133L135.463 193.974Z" fill="#92540C"/>
<path d="M127.88 148.774H141.037L144.901 144.91H152.629C158.266 144.91 163.671 142.671 167.657 138.685C171.643 134.7 173.882 129.294 173.882 123.658V121.726C173.882 113.527 170.625 105.665 164.828 99.8675C159.03 94.0703 151.168 90.8135 142.969 90.8135H135.241C127.555 90.8135 120.184 93.8668 114.749 99.3016C109.314 104.736 106.261 112.108 106.261 119.794V127.019C106.26 130.701 107.222 134.319 109.053 137.513C110.883 140.708 113.517 143.368 116.694 145.229C119.965 147.542 123.874 148.781 127.88 148.774Z" fill="black"/>
<path opacity="0.5" d="M135.241 90.8135C127.555 90.8135 120.184 93.8668 114.749 99.3016C109.314 104.736 106.261 112.108 106.261 119.794V127.406C106.26 130.444 106.974 133.439 108.348 136.148C108.501 136.434 108.746 136.66 109.043 136.792C109.339 136.923 109.671 136.951 109.986 136.873C110.301 136.794 110.58 136.613 110.781 136.357C110.981 136.102 111.09 135.787 111.091 135.462V124.624C111.091 116.938 114.144 109.567 119.579 104.132C125.014 98.6968 132.385 95.6435 140.071 95.6435H153.422C153.762 95.6412 154.09 95.5202 154.35 95.3015C154.61 95.0827 154.786 94.7799 154.847 94.4454C154.908 94.1109 154.85 93.7657 154.683 93.4694C154.516 93.1731 154.251 92.9444 153.933 92.8228C150.431 91.4921 146.716 90.8112 142.969 90.8135H135.241Z" fill="#5A2807"/>
<path d="M123.649 142.978V164.23C123.649 166.613 124.596 168.898 126.28 170.583C127.965 172.267 130.25 173.214 132.633 173.214C135.016 173.214 137.301 172.267 138.986 170.583C140.67 168.898 141.617 166.613 141.617 164.23V142.978H123.649Z" fill="#92540C"/>
<path opacity="0.25" d="M128.479 154.299C128.479 158.163 132.343 161.458 137.676 162.124C138.983 162.285 140.301 162.333 141.617 162.269V146.842H128.479V154.299Z" fill="#330B01"/>
<path d="M157.508 130.42L150.388 130.371C145.896 130.371 141.636 129.357 138.709 126.053C138.022 125.244 137.109 124.658 136.087 124.369C135.065 124.08 133.98 124.101 132.971 124.43H132.845C132.166 124.66 131.54 125.028 131.009 125.51C130.477 125.992 130.05 126.578 129.754 127.232C129.542 127.734 129.339 128.198 129.155 128.748C128.83 129.565 128.237 130.247 127.473 130.681C126.708 131.115 125.819 131.276 124.951 131.136C124.083 130.996 123.289 130.565 122.699 129.913C122.109 129.261 121.759 128.428 121.707 127.551C121.723 127.069 121.558 126.599 121.246 126.233C120.933 125.866 120.495 125.63 120.017 125.57C119.493 125.544 118.97 125.625 118.479 125.807C117.987 125.989 117.538 126.27 117.159 126.631C116.779 126.993 116.477 127.428 116.271 127.91C116.065 128.391 115.959 128.91 115.959 129.434V131.743C115.944 132.265 116.032 132.784 116.218 133.272C116.404 133.76 116.685 134.206 117.044 134.585C117.403 134.964 117.833 135.268 118.31 135.48C118.788 135.692 119.302 135.807 119.824 135.82C120.347 135.832 120.844 136.052 121.206 136.43C121.568 136.809 121.766 137.315 121.756 137.839V139.771C121.756 142.715 122.456 145.618 123.8 148.238C125.144 150.859 127.092 153.122 129.484 154.84C132.727 157.17 136.619 158.424 140.612 158.424H141.076C151.142 158.424 160.396 150.696 160.396 140.698C160.396 140.466 160.396 135.964 160.396 133.308C160.393 132.543 160.088 131.809 159.547 131.268C159.006 130.727 158.273 130.422 157.508 130.42Z" fill="#92540C"/>
<path d="M141.066 136.361C141.066 135.56 140.417 134.912 139.617 134.912C138.817 134.912 138.168 135.56 138.168 136.361C138.168 137.161 138.817 137.81 139.617 137.81C140.417 137.81 141.066 137.161 141.066 136.361Z" fill="#330B01"/>
<path d="M156.523 136.361C156.523 135.56 155.874 134.912 155.074 134.912C154.273 134.912 153.625 135.56 153.625 136.361C153.625 137.161 154.273 137.81 155.074 137.81C155.874 137.81 156.523 137.161 156.523 136.361Z" fill="#330B01"/>
<path d="M141.762 146.842C141.648 146.84 141.535 146.868 141.435 146.924C141.335 146.979 141.251 147.059 141.191 147.157C141.132 147.254 141.099 147.366 141.095 147.48C141.092 147.594 141.119 147.707 141.173 147.808C141.831 148.695 142.689 149.416 143.676 149.912C144.663 150.409 145.753 150.667 146.858 150.667C147.963 150.667 149.052 150.409 150.039 149.912C151.026 149.416 151.884 148.695 152.542 147.808C152.596 147.708 152.622 147.596 152.62 147.482C152.617 147.369 152.584 147.258 152.526 147.161C152.468 147.064 152.385 146.983 152.286 146.927C152.188 146.871 152.076 146.842 151.963 146.842H141.762Z" fill="white"/>
<path d="M284.828 410.118H268.618L239.967 422.406C238.645 423.064 237.539 424.087 236.781 425.354C236.023 426.621 235.643 428.078 235.687 429.554C235.737 430.48 236.143 431.351 236.82 431.984C237.496 432.618 238.392 432.966 239.319 432.954H286.654C287.317 432.956 287.974 432.821 288.584 432.557C289.193 432.294 289.741 431.907 290.194 431.422C290.648 430.937 290.996 430.364 291.218 429.739C291.44 429.113 291.53 428.448 291.484 427.786L289.552 414.262C289.388 413.121 288.822 412.077 287.956 411.317C287.09 410.557 285.98 410.132 284.828 410.118Z" fill="white"/>
<path d="M321.15 400.226L311.354 427.467C311.13 428.052 311.052 428.682 311.126 429.304C311.2 429.926 311.424 430.52 311.778 431.037C312.133 431.553 312.607 431.975 313.161 432.267C313.715 432.559 314.331 432.712 314.958 432.713H322.763C325.199 432.712 327.546 431.791 329.332 430.134L348.536 412.301C350.013 410.93 351.024 409.131 351.428 407.156C351.832 405.181 351.607 403.129 350.787 401.289L346.923 393.85C346.481 393.007 345.744 392.357 344.853 392.023C343.962 391.69 342.979 391.697 342.093 392.044L321.15 400.226Z" fill="white"/>
<path d="M236.189 312.995V293.434C236.192 290.744 237.261 288.166 239.163 286.264C241.064 284.363 243.643 283.293 246.332 283.291H251.162C253.852 283.293 256.43 284.363 258.332 286.264C260.233 288.166 261.303 290.744 261.305 293.434V312.995H265.169V293.434C265.164 289.72 263.687 286.161 261.061 283.535C258.436 280.909 254.876 279.432 251.162 279.427H246.332C242.618 279.429 239.057 280.906 236.431 283.532C233.804 286.158 232.328 289.72 232.325 293.434V312.995H236.189Z" fill="white"/>
<path d="M270.482 376.752H234.286V303.094H275.312V371.922C275.312 373.203 274.804 374.431 273.898 375.337C272.992 376.243 271.763 376.752 270.482 376.752Z" fill="#BC4726"/>
<path d="M241.502 376.752H227.012C225.731 376.752 224.503 376.243 223.597 375.337C222.691 374.431 222.182 373.203 222.182 371.922V305.026C222.182 304.513 222.386 304.022 222.748 303.66C223.11 303.297 223.602 303.094 224.114 303.094H244.4C244.913 303.094 245.404 303.297 245.766 303.66C246.129 304.022 246.332 304.513 246.332 305.026V371.922C246.332 373.203 245.823 374.431 244.918 375.337C244.012 376.243 242.783 376.752 241.502 376.752Z" fill="#DE5833"/>
<path d="M236.218 362.6C235.996 362.287 235.702 362.032 235.361 361.856C235.019 361.68 234.641 361.588 234.257 361.588C233.873 361.588 233.495 361.68 233.154 361.856C232.812 362.032 232.518 362.287 232.296 362.6L223.38 375.071C223.83 375.595 224.387 376.016 225.014 376.306C225.64 376.596 226.322 376.748 227.012 376.752H241.502C242.193 376.748 242.874 376.596 243.501 376.306C244.127 376.016 244.684 375.595 245.134 375.071L236.218 362.6Z" fill="#BC4726"/>
<path d="M256.958 254.069L257.036 251.229L245.444 250.639L241.502 252.861C239.673 253.884 238.109 255.322 236.935 257.058C235.76 258.794 235.009 260.781 234.74 262.859C234.228 266.582 234.772 270.374 236.309 273.803C237.846 277.233 240.315 280.162 243.434 282.257C246.694 284.383 250.479 285.563 254.369 285.667H254.659C257.592 285.745 260.435 284.655 262.563 282.637C264.692 280.619 265.932 277.838 266.01 274.906C266.076 273.259 265.775 271.619 265.128 270.103C264.482 268.588 263.506 267.235 262.271 266.144C260.546 264.651 259.174 262.793 258.255 260.704C257.336 258.616 256.893 256.349 256.958 254.069Z" fill="#F2A18A"/>
<path d="M251.974 161.902L235.011 250.842C234.685 252.491 234.993 254.201 235.872 255.633C236.75 257.066 238.136 258.114 239.754 258.57C243.167 259.56 246.781 259.64 250.235 258.802C251.997 258.348 253.685 257.645 255.248 256.716C262.378 231.136 269.5 205.556 276.617 179.976L251.974 161.902Z" fill="#557FF3"/>
<path d="M314.919 303.335V264.695L257.277 264.25L255.239 336.112C255.075 343.871 255.595 351.629 256.794 359.296L263.923 405.22C264.137 406.585 264.832 407.829 265.883 408.727C266.933 409.625 268.27 410.118 269.652 410.118H284.006C284.803 410.12 285.591 409.958 286.322 409.641C287.053 409.325 287.711 408.861 288.255 408.279C288.799 407.697 289.217 407.01 289.483 406.259C289.75 405.508 289.858 404.711 289.802 403.916L286.653 359.171C286.189 352.562 286.354 345.925 287.146 339.348L290.343 312.841C290.782 309.17 292.552 305.788 295.318 303.335H314.919Z" fill="#051133"/>
<path d="M332.056 346.013C330.927 342.419 330.511 338.639 330.829 334.885L337.465 256.967H290.914L298.922 340.923C299.435 346.311 300.7 351.601 302.679 356.64L317.894 395.28C318.456 396.709 319.563 397.856 320.97 398.47C322.377 399.084 323.97 399.114 325.4 398.555L340.982 392.459C342.349 391.923 343.461 390.887 344.094 389.562C344.727 388.237 344.834 386.721 344.392 385.32L332.056 346.013Z" fill="#051133"/>
<path d="M347.183 256.165C346.942 253.751 345.811 251.512 344.012 249.884C342.213 248.256 339.873 247.355 337.446 247.355H255.026C252.513 247.355 250.095 248.322 248.275 250.055C246.455 251.789 245.372 254.157 245.25 256.668C245.079 260.157 246.088 263.602 248.116 266.447C250.144 269.292 253.072 271.37 256.427 272.346C269.171 276.01 282.341 277.984 295.599 278.219C305.277 278.264 314.935 277.325 324.424 275.418C328.617 274.597 332.519 273.66 336.016 272.674C339.526 271.683 342.573 269.481 344.616 266.46C346.66 263.439 347.569 259.792 347.183 256.165Z" fill="#557FF3"/>
<path d="M347.184 256.165C346.948 253.746 345.821 251.5 344.021 249.866C342.221 248.232 339.877 247.327 337.446 247.326H321.913L323.913 269.989C323.974 270.675 324.181 271.34 324.521 271.94C324.861 272.539 325.325 273.059 325.882 273.465C326.439 273.87 327.077 274.151 327.752 274.29C328.427 274.429 329.124 274.421 329.796 274.268C331.921 273.775 333.949 273.302 335.862 272.723C339.396 271.736 342.468 269.535 344.539 266.506C346.61 263.478 347.546 259.816 347.184 256.165Z" fill="#3969EF"/>
<path d="M342.363 179.802L343.754 166.858C341.165 147.721 327.332 131.753 308.475 127.319C307.935 127.184 307.374 127.068 306.824 126.952L292.971 124.179L275.216 130.942C268.079 133.557 261.872 138.219 257.372 144.345C252.872 150.471 250.278 157.787 249.916 165.38L245.675 254.069C245.569 256.183 246.16 258.273 247.357 260.018C248.555 261.763 250.292 263.067 252.302 263.729C266.288 268.268 280.868 270.716 295.57 270.993C310.766 271.005 325.873 268.666 340.354 264.058C342.459 263.377 344.266 261.994 345.474 260.141C346.682 258.288 347.217 256.076 346.99 253.876L342.267 206.609C341.373 197.694 341.405 188.71 342.363 179.802Z" fill="#3969EF"/>
<path d="M342.363 179.802L343.754 166.858C341.165 147.721 327.332 131.753 308.476 127.319C307.935 127.184 307.374 127.068 306.824 126.952L292.971 124.179L275.216 130.942C268.079 133.557 261.872 138.219 257.372 144.345C252.872 150.471 250.279 157.787 249.916 165.38L245.675 254.127C245.568 256.238 246.156 258.327 247.35 260.072C248.543 261.816 250.276 263.122 252.283 263.787C266.275 268.327 280.862 270.775 295.57 271.051C310.776 271.061 325.893 268.718 340.383 264.106C342.475 263.421 344.271 262.042 345.472 260.198C346.674 258.353 347.21 256.153 346.99 253.963L342.267 206.628C341.371 197.707 341.404 188.717 342.363 179.802Z" fill="#3969EF"/>
<path d="M239.918 168.935H224.636C222.829 168.935 221.631 171.108 222.385 173.001L234.315 202.87C234.647 203.811 235.253 204.631 236.056 205.223C236.858 205.816 237.82 206.154 238.817 206.194H254.06C255.876 206.194 257.074 204.03 256.321 202.127L244.4 172.267C244.072 171.327 243.47 170.507 242.671 169.913C241.872 169.318 240.913 168.978 239.918 168.935Z" fill="white"/>
<path d="M238.604 170.828C238.699 170.504 238.864 170.204 239.087 169.95C239.31 169.696 239.585 169.494 239.894 169.357C240.203 169.22 240.538 169.152 240.875 169.157C241.213 169.163 241.546 169.242 241.85 169.389C243.04 170.001 243.959 171.034 244.429 172.287L256.359 202.098C256.636 202.795 256.66 203.568 256.427 204.281C256.33 204.604 256.165 204.903 255.942 205.156C255.719 205.408 255.443 205.61 255.135 205.746C254.826 205.882 254.491 205.949 254.154 205.943C253.817 205.937 253.485 205.858 253.181 205.711C251.99 205.1 251.071 204.066 250.602 202.813L238.672 172.992C238.397 172.301 238.374 171.535 238.604 170.828Z" fill="#E6E6E6"/>
<path d="M346.99 253.924L344.662 230.614L343.155 215.496L342.267 206.628C341.371 197.71 341.404 188.723 342.363 179.812L343.754 166.858L328.037 171.195L326.511 185.482C325.522 194.674 325.432 203.94 326.24 213.149L298.062 209.207C296.99 209.039 295.895 209.09 294.844 209.357C293.792 209.624 292.806 210.101 291.944 210.761C291.083 211.42 290.364 212.247 289.831 213.192C289.299 214.137 288.964 215.181 288.846 216.259L288.267 221.302C288.044 223.26 288.546 225.233 289.677 226.847L289.88 227.137C291.052 228.809 292.817 229.973 294.816 230.392L316.851 235.039C320.276 235.76 323.383 237.553 325.72 240.158C328.058 242.764 329.506 246.046 329.853 249.529L330.993 260.928C331.062 261.636 331.287 262.319 331.651 262.931C332.015 263.542 332.51 264.065 333.099 264.462C333.689 264.86 334.359 265.123 335.062 265.231C335.765 265.34 336.484 265.292 337.166 265.091C338.267 264.763 339.33 264.434 340.335 264.125C342.446 263.447 344.261 262.063 345.473 260.206C346.685 258.348 347.221 256.13 346.99 253.924Z" fill="#2B55CA"/>
<path opacity="0.5" d="M343.097 381.186L333.659 384.876C331.278 385.806 328.625 385.753 326.281 384.73C323.938 383.707 322.096 381.797 321.159 379.418L312.195 356.64C310.207 351.6 308.939 346.306 308.427 340.913L304.235 296.989C304.097 295.549 303.427 294.212 302.354 293.242C301.282 292.271 299.885 291.737 298.439 291.743H297.386C296.981 291.741 296.581 291.824 296.211 291.987C295.84 292.149 295.508 292.387 295.235 292.685C294.962 292.984 294.754 293.336 294.626 293.719C294.497 294.103 294.45 294.509 294.488 294.912L298.873 340.913C299.386 346.305 300.651 351.598 302.631 356.64L316.397 391.609L317.846 395.29C318.408 396.718 319.514 397.866 320.922 398.48C322.329 399.093 323.922 399.124 325.352 398.564L340.934 392.469C342.301 391.932 343.413 390.897 344.046 389.572C344.679 388.247 344.785 386.731 344.343 385.33L343.097 381.186Z" fill="#14307E"/>
<path opacity="0.5" d="M289.802 403.916L289.522 399.936H281.669C279.133 399.936 276.681 399.03 274.756 397.381C272.83 395.731 271.558 393.448 271.168 390.943L266.251 359.296C265.062 351.628 264.542 343.87 264.696 336.112L265.43 299.404C265.455 297.854 264.959 296.341 264.022 295.106C263.085 293.871 261.761 292.986 260.262 292.593C258.938 292.245 257.673 291.898 256.398 291.54L255.142 336.093C255.142 336.093 255.142 336.16 255.142 336.199C255.006 343.652 255.491 351.103 256.591 358.475C256.591 358.746 256.659 359.016 256.707 359.277L263.025 399.917L263.846 405.201C264.06 406.566 264.755 407.81 265.805 408.708C266.856 409.606 268.192 410.099 269.574 410.099H284.006C284.801 410.1 285.588 409.939 286.318 409.623C287.047 409.308 287.704 408.847 288.248 408.267C288.791 407.687 289.21 407.001 289.477 406.253C289.745 405.505 289.855 404.709 289.802 403.916Z" fill="#14307E"/>
<path d="M348.864 204.648L343.754 166.857C343.593 165.679 343.39 164.51 343.146 163.351C342.413 159.555 340.217 156.2 337.031 154.01C326.279 146.687 312.185 157.014 315.286 169.64L322.048 196.978C322.156 197.43 322.154 197.902 322.042 198.353C321.929 198.804 321.71 199.222 321.402 199.571C321.094 199.919 320.707 200.189 320.273 200.356C319.839 200.524 319.371 200.584 318.909 200.533L280.655 195.142C279.394 194.98 278.12 195.321 277.11 196.091C276.099 196.861 275.432 197.999 275.255 199.257L273.941 210.763C273.77 211.975 274.066 213.207 274.769 214.21C275.472 215.212 276.53 215.91 277.728 216.163L324.879 226.093C329.493 227.116 334.32 226.487 338.519 224.316C342.02 222.457 344.879 219.586 346.725 216.077C348.57 212.569 349.316 208.586 348.864 204.648Z" fill="#3969EF"/>
<path opacity="0.5" d="M316.117 163.534C315.568 167.567 315.787 171.668 316.764 175.619L322.009 196.978C322.118 197.43 322.116 197.902 322.003 198.353C321.891 198.804 321.671 199.222 321.363 199.571C321.055 199.919 320.668 200.189 320.234 200.356C319.8 200.524 319.332 200.584 318.87 200.533L280.655 195.142C279.394 194.98 278.12 195.321 277.11 196.091C276.099 196.861 275.432 197.999 275.255 199.257L273.941 210.763C273.77 211.975 274.066 213.207 274.769 214.21C275.472 215.212 276.53 215.91 277.728 216.163L324.879 226.093C329.493 227.116 334.32 226.487 338.519 224.316C342.026 222.454 344.89 219.577 346.736 216.061C348.582 212.545 349.324 208.554 348.864 204.609L343.754 166.819C343.677 166.23 343.58 165.64 343.474 165.051C343.474 164.848 343.397 164.645 343.358 164.452C343.291 164.066 343.223 163.689 343.146 163.312C341.418 154.903 337.411 147.13 331.564 140.843C325.717 134.557 318.255 129.998 309.992 127.667C309.586 127.557 309.161 127.533 308.744 127.596C308.328 127.659 307.929 127.808 307.573 128.033C307.217 128.258 306.912 128.555 306.676 128.904C306.441 129.253 306.281 129.648 306.206 130.062C305.96 131.35 306.105 132.681 306.621 133.886C307.137 135.091 308.002 136.114 309.104 136.824C310.727 137.883 312.279 139.048 313.75 140.312C316.024 142.306 317.63 144.951 318.352 147.888C319.074 150.825 318.877 153.912 317.788 156.734C316.982 158.918 316.424 161.186 316.126 163.496L316.117 163.534Z" fill="#2B55CA"/>
<path d="M280.655 195.142C279.394 194.98 278.12 195.321 277.11 196.091C276.099 196.862 275.432 197.999 275.255 199.258L273.941 210.763C273.77 211.975 274.066 213.207 274.769 214.21C275.472 215.212 276.53 215.91 277.728 216.163C278.429 216.31 279.153 216.309 279.854 216.16C280.554 216.012 281.216 215.718 281.797 215.299C282.378 214.88 282.866 214.344 283.228 213.726C283.59 213.108 283.819 212.421 283.9 211.709L285.137 200.832C285.291 199.499 284.917 198.158 284.096 197.097C283.275 196.035 282.071 195.337 280.742 195.152L280.655 195.142Z" fill="#557FF3"/>
<path d="M260.822 189.839C259.599 189.227 258.266 188.865 256.901 188.772C255.537 188.679 254.167 188.858 252.872 189.298C252.676 189.367 252.496 189.477 252.345 189.62C252.194 189.763 252.075 189.937 251.995 190.129C251.916 190.322 251.878 190.529 251.885 190.737C251.891 190.945 251.941 191.149 252.031 191.336L252.862 193.201C253.128 193.798 253.249 194.45 253.214 195.103C253.179 195.756 252.99 196.392 252.662 196.958C252.334 197.523 251.876 198.003 251.327 198.358C250.777 198.712 250.151 198.931 249.501 198.997L235.706 201.132C235.233 201.179 234.777 201.333 234.374 201.584C233.971 201.835 233.63 202.175 233.379 202.578C233.128 202.982 232.973 203.437 232.926 203.91C232.879 204.383 232.941 204.86 233.107 205.305L233.919 207.449C234.922 210.128 236.735 212.429 239.104 214.032C241.474 215.634 244.283 216.46 247.143 216.395C248.205 216.346 249.258 216.181 250.283 215.902L259.277 213.603C262.983 213.021 266.73 212.727 270.482 212.724H276.153C276.868 212.728 277.559 212.469 278.094 211.994C278.629 211.52 278.97 210.865 279.051 210.154L280.017 201.547C280.08 200.961 279.963 200.37 279.682 199.852C279.401 199.334 278.968 198.915 278.442 198.649L260.822 189.839Z" fill="#F2A18A"/>
<path d="M266.251 138.988C265.907 140.648 266.041 142.372 266.638 143.959C267.235 145.546 268.27 146.931 269.623 147.953C272.494 150.12 276.004 151.272 279.602 151.228C284.891 151.154 289.94 149.002 293.656 145.237C297.372 141.472 299.458 136.396 299.463 131.106V128.642C299.462 127.75 299.153 126.886 298.588 126.195C298.023 125.505 297.236 125.032 296.362 124.856L293 124.179L275.245 130.942C273.738 131.493 272.266 132.138 270.84 132.874C269.671 133.487 268.655 134.355 267.866 135.413C267.077 136.471 266.535 137.693 266.28 138.988H266.251Z" fill="#557FF3"/>
<path d="M270.483 140.524L261.924 126.836L285.939 112.066L292.15 121.726C293.143 123.281 293.669 125.088 293.667 126.933V131.028C293.667 134.828 292.158 138.472 289.471 141.158C286.784 143.845 283.14 145.354 279.341 145.354C277.577 145.36 275.84 144.921 274.292 144.077C272.743 143.232 271.433 142.01 270.483 140.524Z" fill="#F2A18A"/>
<path d="M246.013 121.726H283.639L282.075 88.8813H240.923L240.691 90.4849C239.576 98.3131 240.406 106.295 243.106 113.727L246.013 121.726Z" fill="#F2A18A"/>
<path d="M263.295 129.096L270.444 140.524C270.598 140.766 270.772 140.988 270.946 141.22C274.945 140.28 278.617 138.277 281.572 135.424C282.055 134.948 282.471 134.408 282.809 133.82C283.715 132.218 284.108 130.376 283.935 128.544C283.763 126.711 283.032 124.976 281.843 123.571L277.013 117.852L263.295 129.096Z" fill="#EB876C"/>
<path d="M249.23 116.297C248.696 116.299 248.174 116.46 247.733 116.76C246.337 117.696 245.327 119.107 244.892 120.731C244.457 122.354 244.625 124.081 245.366 125.59L246.66 128.188C248.013 130.891 250.091 133.164 252.662 134.752C255.233 136.341 258.196 137.182 261.218 137.182C266.001 137.187 270.678 135.771 274.655 133.115L278.519 130.497C283.29 127.32 286.771 122.545 288.334 117.031V116.934C289.499 112.824 289.459 108.465 288.218 104.376L286.228 97.7976L278.249 101.217C279.041 105.303 279.273 107.255 278.819 109.322C278.426 111.088 277.546 112.708 276.278 113.998L275.389 114.886C274.511 115.766 273.398 116.374 272.183 116.636C270.968 116.898 269.703 116.804 268.54 116.364L264.879 114.993C264.178 114.731 263.462 114.512 262.735 114.336C262.164 114.208 261.573 114.211 261.004 114.345C260.435 114.478 259.904 114.74 259.45 115.108L257.209 116.934C256.562 117.498 255.774 117.875 254.929 118.026C254.258 118.127 253.573 118.085 252.919 117.904C252.265 117.723 251.656 117.405 251.133 116.973C250.627 116.535 249.985 116.286 249.317 116.268L249.23 116.297Z" fill="#482006"/>
<path d="M241.28 76.3232H236.035C235.235 76.3237 234.456 76.572 233.804 77.0339C233.152 77.4958 232.659 78.1487 232.393 78.9025L230.857 83.2591C230.244 84.9629 230.044 86.7881 230.276 88.5841C230.507 90.3801 231.162 92.0953 232.187 93.5882C233.212 95.081 234.577 96.3088 236.17 97.17C237.763 98.0313 239.537 98.5013 241.348 98.5414H241.502C247.854 98.5421 254.118 97.0637 259.798 94.2233C261.786 93.2376 264.032 92.8985 266.221 93.2537C268.411 93.6088 270.435 94.6403 272.009 96.2037L275.38 99.575C277.191 101.387 279.648 102.405 282.21 102.405H288.421L286.373 88.0795C285.715 83.4757 283.419 79.2638 279.905 76.2169C276.392 73.1701 271.897 71.4929 267.246 71.4932H265.653C261.98 71.5236 258.346 72.2446 254.939 73.6184C253.091 74.3638 251.189 74.9677 249.25 75.4248C246.636 76.0244 243.962 76.3258 241.28 76.3232Z" fill="black"/>
<path opacity="0.8" d="M255.027 94.6774C255.025 94.3658 254.957 94.058 254.828 93.7747C254.698 93.4913 254.509 93.2388 254.275 93.0341C254.04 92.8293 253.764 92.677 253.465 92.5872C253.167 92.4975 252.853 92.4724 252.544 92.5136C251.102 92.6956 249.65 92.786 248.197 92.784H248.052C240.788 92.7261 235.842 84.8338 238.257 77.5018L238.604 76.3232H236.006C235.207 76.3237 234.427 76.572 233.775 77.034C233.123 77.4959 232.63 78.1487 232.364 78.9025L230.828 83.2592C230.214 84.9652 230.015 86.793 230.248 88.5912C230.481 90.3893 231.138 92.1062 232.167 93.5997C233.195 95.0932 234.564 96.3204 236.16 97.1798C237.757 98.0391 239.535 98.5059 241.348 98.5414H241.502C245.549 98.5402 249.573 97.9379 253.442 96.7543C253.892 96.6198 254.287 96.3464 254.572 95.9733C254.856 95.6002 255.016 95.1465 255.027 94.6774Z" fill="#5A2807"/>
<path d="M283.639 105.043L283.05 101.179C282.927 100.482 283.068 99.7647 283.447 99.1676C283.826 98.5704 284.415 98.1368 285.098 97.9522L285.465 97.8749C286.095 97.769 286.74 97.7892 287.363 97.9344C287.985 98.0796 288.572 98.3469 289.091 98.7207C289.609 99.0946 290.048 99.5676 290.382 100.112C290.717 100.657 290.939 101.263 291.038 101.894C291.136 102.526 291.108 103.17 290.956 103.791C290.803 104.412 290.529 104.996 290.149 105.51C289.769 106.024 289.291 106.457 288.742 106.785C288.194 107.113 287.585 107.328 286.953 107.419C286.199 107.539 285.428 107.357 284.807 106.912C284.187 106.467 283.767 105.795 283.639 105.043Z" fill="#F2A18A"/>
<path d="M252.128 123.658C251.955 123.663 251.787 123.714 251.641 123.806C251.494 123.899 251.375 124.028 251.296 124.183C251.217 124.337 251.181 124.509 251.191 124.682C251.202 124.855 251.259 125.021 251.356 125.165C252.14 126.473 253.25 127.556 254.577 128.308C255.904 129.06 257.404 129.455 258.929 129.455C260.455 129.455 261.954 129.06 263.281 128.308C264.609 127.556 265.719 126.473 266.503 125.165C266.6 125.021 266.656 124.855 266.667 124.682C266.677 124.509 266.641 124.337 266.562 124.183C266.483 124.028 266.364 123.899 266.218 123.806C266.071 123.714 265.903 123.663 265.73 123.658H252.128Z" fill="white"/>
<path d="M248.264 107.719C248.264 106.918 247.615 106.27 246.815 106.27C246.015 106.27 245.366 106.918 245.366 107.719C245.366 108.519 246.015 109.168 246.815 109.168C247.615 109.168 248.264 108.519 248.264 107.719Z" fill="#330B01"/>
<path d="M264.686 106.752C264.686 105.952 264.038 105.303 263.237 105.303C262.437 105.303 261.788 105.952 261.788 106.752C261.788 107.553 262.437 108.201 263.237 108.201C264.038 108.201 264.686 107.553 264.686 106.752Z" fill="#330B01"/>
<path d="M272.743 413.46L273.786 407.21C273.856 406.792 273.832 406.364 273.718 405.955C273.604 405.547 273.401 405.169 273.125 404.848C272.848 404.526 272.505 404.269 272.118 404.095C271.732 403.921 271.312 403.833 270.888 403.839H261.315C260.835 403.839 260.363 403.957 259.941 404.184C259.519 404.412 259.159 404.74 258.895 405.14C258.631 405.54 258.47 406 258.427 406.477C258.384 406.955 258.46 407.436 258.649 407.877L261.788 415.199C262.05 415.811 262.515 416.314 263.105 416.624C263.694 416.934 264.372 417.031 265.024 416.899L270.415 415.827C270.999 415.719 271.535 415.433 271.951 415.01C272.368 414.587 272.644 414.046 272.743 413.46Z" fill="white"/>
<path d="M332.307 399.415V394.585C332.306 394.112 332.189 393.647 331.967 393.229C331.745 392.812 331.424 392.456 331.033 392.191C330.641 391.926 330.191 391.761 329.721 391.71C329.251 391.659 328.776 391.724 328.337 391.899L317.817 396.072C317.34 396.263 316.923 396.578 316.607 396.983C316.292 397.389 316.09 397.87 316.022 398.38C315.955 398.889 316.023 399.407 316.221 399.88C316.42 400.354 316.74 400.767 317.15 401.076L319.759 403.008C320.073 403.244 320.432 403.414 320.814 403.507C321.196 403.6 321.593 403.614 321.98 403.549L329.921 402.226C330.583 402.107 331.183 401.761 331.619 401.249C332.054 400.736 332.297 400.087 332.307 399.415Z" fill="white"/>
<path d="M210.59 110.134H198.998C189.395 110.134 181.61 117.918 181.61 127.522V137.182C181.61 146.785 189.395 154.57 198.998 154.57H210.59C220.193 154.57 227.978 146.785 227.978 137.182V127.522C227.978 117.918 220.193 110.134 210.59 110.134Z" fill="white"/>
<path d="M211.556 151.285L226.886 155.884C227.221 155.984 227.575 155.992 227.914 155.906C228.252 155.821 228.561 155.646 228.807 155.399C229.054 155.152 229.229 154.844 229.314 154.505C229.4 154.167 229.392 153.812 229.292 153.478L224.694 138.148L211.556 151.285Z" fill="white"/>
<path d="M210.387 123.658C209.277 123.617 208.181 123.922 207.252 124.531C206.322 125.141 205.605 126.024 205.2 127.058C205.172 127.147 205.117 127.224 205.042 127.28C204.967 127.335 204.877 127.365 204.784 127.365C204.691 127.365 204.601 127.335 204.526 127.28C204.451 127.224 204.396 127.147 204.369 127.058C203.964 126.025 203.248 125.143 202.321 124.534C201.393 123.925 200.3 123.619 199.191 123.658C196.206 123.783 193.917 126.672 194.061 129.763C194.128 131.323 194.512 132.853 195.19 134.26C195.867 135.666 196.825 136.92 198.003 137.945L203.065 142.321C203.541 142.736 204.152 142.965 204.784 142.965C205.416 142.965 206.027 142.736 206.504 142.321L211.575 137.945C212.752 136.919 213.708 135.665 214.385 134.258C215.062 132.852 215.447 131.322 215.516 129.763C215.661 126.681 213.372 123.793 210.387 123.658Z" fill="#DE5833"/>
<path opacity="0.4" d="M366.833 432.955H68.2347C66.4803 432.955 65.0581 434.298 65.0581 435.955C65.0581 437.611 66.4803 438.955 68.2347 438.955H366.833C368.587 438.955 370.009 437.611 370.009 435.955C370.009 434.298 368.587 432.955 366.833 432.955Z" fill="#ABABAB"/>
</svg>
